<mxfile host="app.diagrams.net" modified="2021-04-09T10:07:22.680Z" agent="5.0 (X11; Linux x86_64) AppleWebKit/537.36 (KHTML, like Gecko) Chrome/85.0.4183.84 Safari/537.36" etag="mw2gxUOvsfL81wwQltfF" version="14.1.2" type="github">
  <diagram id="gN8Y7Yjl6EuYMespFMN6" name="Page-1">
    <mxGraphModel dx="2028" dy="1147" grid="1" gridSize="10" guides="1" tooltips="1" connect="1" arrows="1" fold="1" page="1" pageScale="1" pageWidth="827" pageHeight="1169" math="0" shadow="0">
      <root>
        <mxCell id="0" />
        <mxCell id="1" parent="0" />
        <mxCell id="fG6p9Fc8WQSWcUIoYt4F-3" value="" style="edgeStyle=orthogonalEdgeStyle;rounded=0;orthogonalLoop=1;jettySize=auto;html=1;" edge="1" parent="1" source="fG6p9Fc8WQSWcUIoYt4F-1" target="fG6p9Fc8WQSWcUIoYt4F-2">
          <mxGeometry relative="1" as="geometry" />
        </mxCell>
        <mxCell id="fG6p9Fc8WQSWcUIoYt4F-1" value="Init" style="rounded=1;whiteSpace=wrap;html=1;" vertex="1" parent="1">
          <mxGeometry x="110" y="580" width="120" height="60" as="geometry" />
        </mxCell>
        <mxCell id="fG6p9Fc8WQSWcUIoYt4F-5" style="edgeStyle=orthogonalEdgeStyle;rounded=0;orthogonalLoop=1;jettySize=auto;html=1;" edge="1" parent="1" source="fG6p9Fc8WQSWcUIoYt4F-2" target="fG6p9Fc8WQSWcUIoYt4F-4">
          <mxGeometry relative="1" as="geometry">
            <Array as="points">
              <mxPoint x="370" y="550" />
              <mxPoint x="270" y="550" />
            </Array>
          </mxGeometry>
        </mxCell>
        <mxCell id="fG6p9Fc8WQSWcUIoYt4F-2" value="LM" style="rounded=1;whiteSpace=wrap;html=1;" vertex="1" parent="1">
          <mxGeometry x="310" y="580" width="120" height="60" as="geometry" />
        </mxCell>
        <mxCell id="fG6p9Fc8WQSWcUIoYt4F-7" style="edgeStyle=orthogonalEdgeStyle;rounded=0;orthogonalLoop=1;jettySize=auto;html=1;" edge="1" parent="1" source="fG6p9Fc8WQSWcUIoYt4F-4" target="fG6p9Fc8WQSWcUIoYt4F-1">
          <mxGeometry relative="1" as="geometry">
            <Array as="points">
              <mxPoint x="170" y="470" />
            </Array>
          </mxGeometry>
        </mxCell>
        <mxCell id="fG6p9Fc8WQSWcUIoYt4F-14" style="edgeStyle=orthogonalEdgeStyle;rounded=0;orthogonalLoop=1;jettySize=auto;html=1;exitX=0;exitY=0;exitDx=0;exitDy=0;entryX=0.5;entryY=1;entryDx=0;entryDy=0;" edge="1" parent="1" source="fG6p9Fc8WQSWcUIoYt4F-4" target="fG6p9Fc8WQSWcUIoYt4F-9">
          <mxGeometry relative="1" as="geometry" />
        </mxCell>
        <mxCell id="fG6p9Fc8WQSWcUIoYt4F-15" style="edgeStyle=orthogonalEdgeStyle;rounded=0;orthogonalLoop=1;jettySize=auto;html=1;exitX=0.5;exitY=0;exitDx=0;exitDy=0;entryX=0.425;entryY=1.05;entryDx=0;entryDy=0;entryPerimeter=0;" edge="1" parent="1" source="fG6p9Fc8WQSWcUIoYt4F-4" target="fG6p9Fc8WQSWcUIoYt4F-10">
          <mxGeometry relative="1" as="geometry" />
        </mxCell>
        <mxCell id="fG6p9Fc8WQSWcUIoYt4F-28" style="edgeStyle=orthogonalEdgeStyle;rounded=0;orthogonalLoop=1;jettySize=auto;html=1;entryX=-0.017;entryY=0.617;entryDx=0;entryDy=0;entryPerimeter=0;" edge="1" parent="1" source="fG6p9Fc8WQSWcUIoYt4F-4" target="fG6p9Fc8WQSWcUIoYt4F-27">
          <mxGeometry relative="1" as="geometry" />
        </mxCell>
        <mxCell id="fG6p9Fc8WQSWcUIoYt4F-4" value="MapManager" style="ellipse;whiteSpace=wrap;html=1;aspect=fixed;" vertex="1" parent="1">
          <mxGeometry x="230" y="430" width="80" height="80" as="geometry" />
        </mxCell>
        <mxCell id="fG6p9Fc8WQSWcUIoYt4F-11" value="" style="edgeStyle=orthogonalEdgeStyle;rounded=0;orthogonalLoop=1;jettySize=auto;html=1;" edge="1" parent="1" source="fG6p9Fc8WQSWcUIoYt4F-9" target="fG6p9Fc8WQSWcUIoYt4F-10">
          <mxGeometry relative="1" as="geometry" />
        </mxCell>
        <mxCell id="fG6p9Fc8WQSWcUIoYt4F-9" value="Loop" style="rounded=1;whiteSpace=wrap;html=1;" vertex="1" parent="1">
          <mxGeometry x="20" y="340" width="120" height="60" as="geometry" />
        </mxCell>
        <mxCell id="fG6p9Fc8WQSWcUIoYt4F-13" value="" style="edgeStyle=orthogonalEdgeStyle;rounded=0;orthogonalLoop=1;jettySize=auto;html=1;" edge="1" parent="1" source="fG6p9Fc8WQSWcUIoYt4F-10" target="fG6p9Fc8WQSWcUIoYt4F-12">
          <mxGeometry relative="1" as="geometry" />
        </mxCell>
        <mxCell id="fG6p9Fc8WQSWcUIoYt4F-10" value="构造" style="rounded=1;whiteSpace=wrap;html=1;" vertex="1" parent="1">
          <mxGeometry x="220" y="340" width="120" height="60" as="geometry" />
        </mxCell>
        <mxCell id="fG6p9Fc8WQSWcUIoYt4F-17" style="edgeStyle=orthogonalEdgeStyle;rounded=0;orthogonalLoop=1;jettySize=auto;html=1;entryX=1;entryY=0;entryDx=0;entryDy=0;" edge="1" parent="1" source="fG6p9Fc8WQSWcUIoYt4F-12" target="fG6p9Fc8WQSWcUIoYt4F-4">
          <mxGeometry relative="1" as="geometry">
            <Array as="points">
              <mxPoint x="480" y="442" />
            </Array>
          </mxGeometry>
        </mxCell>
        <mxCell id="fG6p9Fc8WQSWcUIoYt4F-12" value="优化" style="rounded=1;whiteSpace=wrap;html=1;" vertex="1" parent="1">
          <mxGeometry x="420" y="340" width="120" height="60" as="geometry" />
        </mxCell>
        <mxCell id="fG6p9Fc8WQSWcUIoYt4F-18" value="修改" style="text;html=1;strokeColor=none;fillColor=none;align=center;verticalAlign=middle;whiteSpace=wrap;rounded=0;" vertex="1" parent="1">
          <mxGeometry x="360" y="420" width="40" height="20" as="geometry" />
        </mxCell>
        <mxCell id="fG6p9Fc8WQSWcUIoYt4F-19" value="加/删" style="text;html=1;strokeColor=none;fillColor=none;align=center;verticalAlign=middle;whiteSpace=wrap;rounded=0;" vertex="1" parent="1">
          <mxGeometry x="290" y="560" width="40" height="20" as="geometry" />
        </mxCell>
        <mxCell id="fG6p9Fc8WQSWcUIoYt4F-20" value="读取" style="text;html=1;strokeColor=none;fillColor=none;align=center;verticalAlign=middle;whiteSpace=wrap;rounded=0;" vertex="1" parent="1">
          <mxGeometry x="180" y="480" width="40" height="20" as="geometry" />
        </mxCell>
        <mxCell id="fG6p9Fc8WQSWcUIoYt4F-22" value="读取" style="text;html=1;strokeColor=none;fillColor=none;align=center;verticalAlign=middle;whiteSpace=wrap;rounded=0;" vertex="1" parent="1">
          <mxGeometry x="130" y="420" width="40" height="20" as="geometry" />
        </mxCell>
        <mxCell id="fG6p9Fc8WQSWcUIoYt4F-23" value="读取" style="text;html=1;strokeColor=none;fillColor=none;align=center;verticalAlign=middle;whiteSpace=wrap;rounded=0;" vertex="1" parent="1">
          <mxGeometry x="230" y="410" width="40" height="20" as="geometry" />
        </mxCell>
        <mxCell id="fG6p9Fc8WQSWcUIoYt4F-27" value="可视化线程" style="rounded=1;whiteSpace=wrap;html=1;" vertex="1" parent="1">
          <mxGeometry x="420" y="480" width="120" height="60" as="geometry" />
        </mxCell>
        <mxCell id="fG6p9Fc8WQSWcUIoYt4F-29" value="读取" style="text;html=1;align=center;verticalAlign=middle;resizable=0;points=[];autosize=1;" vertex="1" parent="1">
          <mxGeometry x="374" y="490" width="40" height="20" as="geometry" />
        </mxCell>
      </root>
    </mxGraphModel>
  </diagram>
</mxfile>
